<svg width="72" height="72" viewBox="0 0 72 72" fill="none" xmlns="http://www.w3.org/2000/svg">
<path d="M46.086 15.642C51.2606 17.9543 55.485 21.9722 58.0537 27.0244C60.6223 32.0766 61.3796 37.8573 60.199 43.4007C59.0184 48.9441 55.9714 53.9145 51.5671 57.4817C47.1627 61.0489 41.6677 62.9968 36 63C31.152 62.9998 26.4109 61.5758 22.3651 58.9048C18.3193 56.2338 15.1469 52.4334 13.2419 47.9755C11.3369 43.5175 10.7831 38.5982 11.6493 33.8282C12.5154 29.0582 14.7633 24.6476 18.114 21.144C20.423 24.3682 23.4698 26.9932 27 28.8C27.0618 24.8359 27.9976 20.9342 29.7404 17.3732C31.4833 13.8123 33.9904 10.6797 37.083 8.19897C39.4432 11.3646 42.53 13.9163 46.083 15.639L46.086 15.642Z" stroke="black" stroke-width="1.5" stroke-linecap="round" stroke-linejoin="round"/>
<path d="M36 54C38.8541 53.9989 41.6012 52.9131 43.6847 50.9624C45.7682 49.0117 47.0324 46.342 47.2212 43.4941C47.41 40.6463 46.5092 37.8331 44.7015 35.6244C42.8937 33.4158 40.314 31.9768 37.485 31.599C34.3877 34.3705 32.3469 38.1299 31.71 42.237C29.399 41.6716 27.2237 40.6518 25.311 39.237C24.7556 40.9268 24.6087 42.7242 24.8825 44.4818C25.1563 46.2393 25.843 47.9069 26.8862 49.3477C27.9293 50.7884 29.2993 51.9613 30.8835 52.77C32.4678 53.5787 34.2212 54.0002 36 54V54Z" stroke="black" stroke-width="1.5" stroke-linecap="round" stroke-linejoin="round"/>
</svg>
