<svg width="33" height="31" viewBox="0 0 33 31" fill="none" xmlns="http://www.w3.org/2000/svg">
<path fill-rule="evenodd" clip-rule="evenodd" d="M18.2013 1.58597C18.5283 1.68277 18.814 1.87524 19.0168 2.13539C19.2195 2.39554 19.3289 2.7098 19.3289 3.03247V10.6137H25.7718C26.0664 10.6136 26.3555 10.6896 26.6074 10.8333C26.8594 10.9771 27.0646 11.1832 27.2008 11.4291C27.337 11.675 27.399 11.9514 27.3799 12.2282C27.3608 12.505 27.2614 12.7715 27.0926 12.9988L15.8174 28.1613C15.6212 28.426 15.3404 28.6248 15.0158 28.7288C14.6913 28.8328 14.34 28.8367 14.0129 28.7398C13.6859 28.6428 13.4003 28.4502 13.1976 28.1899C12.9949 27.9297 12.8857 27.6153 12.8859 27.2925V19.7113H6.44295C6.14832 19.7114 5.85929 19.6354 5.60733 19.4917C5.35537 19.3479 5.15012 19.1418 5.01392 18.8959C4.87772 18.65 4.8158 18.3736 4.83488 18.0968C4.85396 17.82 4.95332 17.5535 5.12215 17.3262L16.3973 2.16366C16.5938 1.89951 16.8747 1.70122 17.1991 1.59761C17.5236 1.49399 17.8746 1.49044 18.2013 1.58748V1.58597Z" fill="#FACC15"/>
</svg>
