<svg width="72" height="72" viewBox="0 0 72 72" fill="none" xmlns="http://www.w3.org/2000/svg">
<path d="M40.5 50.625H50.625M50.625 50.625H60.75M50.625 50.625V40.5M50.625 50.625V60.75M18 31.5H24.75C26.5402 31.5 28.2571 30.7888 29.523 29.523C30.7888 28.2571 31.5 26.5402 31.5 24.75V18C31.5 16.2098 30.7888 14.4929 29.523 13.227C28.2571 11.9612 26.5402 11.25 24.75 11.25H18C16.2098 11.25 14.4929 11.9612 13.227 13.227C11.9612 14.4929 11.25 16.2098 11.25 18V24.75C11.25 26.5402 11.9612 28.2571 13.227 29.523C14.4929 30.7888 16.2098 31.5 18 31.5ZM18 60.75H24.75C26.5402 60.75 28.2571 60.0388 29.523 58.773C30.7888 57.5071 31.5 55.7902 31.5 54V47.25C31.5 45.4598 30.7888 43.7429 29.523 42.477C28.2571 41.2112 26.5402 40.5 24.75 40.5H18C16.2098 40.5 14.4929 41.2112 13.227 42.477C11.9612 43.7429 11.25 45.4598 11.25 47.25V54C11.25 55.7902 11.9612 57.5071 13.227 58.773C14.4929 60.0388 16.2098 60.75 18 60.75ZM47.25 31.5H54C55.7902 31.5 57.5071 30.7888 58.773 29.523C60.0388 28.2571 60.75 26.5402 60.75 24.75V18C60.75 16.2098 60.0388 14.4929 58.773 13.227C57.5071 11.9612 55.7902 11.25 54 11.25H47.25C45.4598 11.25 43.7429 11.9612 42.477 13.227C41.2112 14.4929 40.5 16.2098 40.5 18V24.75C40.5 26.5402 41.2112 28.2571 42.477 29.523C43.7429 30.7888 45.4598 31.5 47.25 31.5Z" stroke="black" stroke-width="1.5" stroke-linecap="round" stroke-linejoin="round"/>
</svg>
